# xmcd
#
# Track frame offsets:
#	165
#	17475
#	31825
#	48364
#	65585
#	81382
#	98914
#	117320
#	134089
#	149849
#	165275
#	183076
#	199163
#	213624
#
# Disc length: 2986 seconds
#
# Revision: 7
# Processed by: cddbd v1.5.2PL0 Copyright (c) Steve Scherf et al.
# Submitted via: EZCDAudioConverter 8.0.2.1
#
DISCID=cb0ba80e
DTITLE=CHRYSTIAN and RALF - 14 MAIORES SUCESSOS [CD 3138-2) GLOBO SIGLA 
DYEAR=1997
DGENRE=SERTANEJO
TTITLE0=MINHA GIOCONDA (MIA GIOCONDA) (PART. ESP. AGNALDO RAYOL) (BY GILMAR SI
TTITLE0=NISTRO)
TTITLE1=VIDA DIVIDIDA (BY GILMAR SINISTRO)
TTITLE2=NOVA YORK (BY GILMAR SINISTRO)
TTITLE3=AUSÊNCIA (BY GILMAR SINISTRO)
TTITLE4=É DESSE JEITO QUE A GENTE SE AMA (BY GILMAR SINISTRO)
TTITLE5=PRAZER POR PRAZER (BY GILMAR SINISTRO)
TTITLE6=ESSE AMOR QUE ME MATA (BY GILMAR SINISTRO)
TTITLE7=LOUCO POR ELA (BY GILMAR SINISTRO)
TTITLE8=LOUCURA DEMAIS (BY GILMAR SINISTRO)
TTITLE9=CHEIRO DE SHAMPOO (BY GILMAR SINISTRO)
TTITLE10=ESPERANDO VOCÊ CHEGAR (BY GILMAR SINISTRO)
TTITLE11=BRIGAS (BY GILMAR SINISTRO)
TTITLE12=CHORA PEITO (BY GILMAR SINISTRO)
TTITLE13=LADRÃO DE MULHER (BY GILMAR SINISTRO)
EXTD=
EXTT0=
EXTT1=
EXTT2=
EXTT3=
EXTT4=
EXTT5=
EXTT6=
EXTT7=
EXTT8=
EXTT9=
EXTT10=
EXTT11=
EXTT12=
EXTT13=
PLAYORDER=
